{
  "asset": {
    "generator": "Khronos glTF Blender I/O v5.1.20",
    "version": "2.0"
  },
  "scene": 0,
  "scenes": [
    {
      "extras": {
        "omnistep_settings": {},
        "assetify_bake_settings": {
          "skip_save_check": 0
        },
        "basecolor_suffix": "_basecolor, _albedo",
        "normal_suffix": "_normal, _nrm",
        "roughness_suffix": "_arm",
        "metallic_suffix": "_arm",
        "opacity_suffix": "_opacity, _alpha",
        "subsurface_suffix": "_subsurface",
        "specular_suffix": "_specular_ior",
        "specular_tint_suffix": "_specular_tint",
        "anisotropic_suffix": "_anisotropic",
        "sheen_suffix": "_sheen",
        "sheen_tint_suffix": "_sheen_tint",
        "clearcoat_suffix": "_clearcoat",
        "clearcoat_roughness_suffix": "_clearcoat_roughness",
        "ior_suffix": "_ior",
        "transmission_suffix": "_transmission",
        "displacement_suffix": "_displacement",
        "emission_suffix": "_emissive",
        "ao_suffix": "_arm",
        "basecolor_channel": 0,
        "normal_channel": 0,
        "roughness_channel": 2,
        "metallic_channel": 3,
        "opacity_channel": 0,
        "subsurface_channel": 0,
        "specular_channel": 0,
        "specular_tint_channel": 0,
        "anisotropic_channel": 0,
        "sheen_channel": 0,
        "sheen_tint_channel": 0,
        "clearcoat_channel": 0,
        "clearcoat_roughness_channel": 0,
        "ior_channel": 0,
        "transmission_channel": 0,
        "displacement_channel": 0,
        "emission_channel": 0,
        "ao_channel": 1,
        "basecolor_colorspace": 20,
        "normal_colorspace": 17,
        "roughness_colorspace": 17,
        "metallic_colorspace": 17,
        "opacity_colorspace": 17,
        "subsurface_colorspace": 20,
        "specular_colorspace": 17,
        "specular_tint_colorspace": 17,
        "anisotropic_colorspace": 17,
        "sheen_colorspace": 17,
        "sheen_tint_colorspace": 17,
        "clearcoat_colorspace": 17,
        "clearcoat_roughness_colorspace": 17,
        "ior_colorspace": 17,
        "transmission_colorspace": 17,
        "displacement_colorspace": 17,
        "emission_colorspace": 20,
        "ao_colorspace": 17,
        "invert_normal_map_green_channel": 0,
        "my_blend_mode": 2,
        "my_disp_mode": 2,
        "bam_disp_scale": 0.009999999776482582,
        "bam_disp_midlevel": 0.0,
        "default_specular_tint": [
          1.0,
          1.0,
          1.0,
          1.0
        ],
        "bc": {}
      },
      "name": "Scene",
      "nodes": [
        0,
        1,
        2,
        3,
        4,
        5,
        6
      ]
    }
  ],
  "nodes": [
    {
      "name": "_Origin",
      "translation": [
        0.4000000059604645,
        0.20000000298023224,
        0
      ]
    },
    {
      "mesh": 0,
      "name": "CrateBody",
      "translation": [
        0.4000000059604645,
        0.75,
        0
      ]
    },
    {
      "mesh": 1,
      "name": "CrateBandFront",
      "translation": [
        0.4000000059604645,
        0.75,
        0.5899999737739563
      ]
    },
    {
      "mesh": 2,
      "name": "CrateBandBack",
      "translation": [
        0.4000000059604645,
        0.75,
        -0.5899999737739563
      ]
    },
    {
      "mesh": 3,
      "name": "CrateBandLeft",
      "translation": [
        -0.1899999976158142,
        0.75,
        0
      ]
    },
    {
      "mesh": 4,
      "name": "CrateBandRight",
      "translation": [
        0.9900000095367432,
        0.75,
        0
      ]
    },
    {
      "mesh": 5,
      "name": "CrateTopBand",
      "translation": [
        0.4000000059604645,
        1.350000023841858,
        0
      ]
    }
  ],
  "materials": [
    {
      "doubleSided": true,
      "name": "GGP_Showcase_mat_crate_wood",
      "pbrMetallicRoughness": {
        "baseColorFactor": [
          0.6399999856948853,
          0.3499999940395355,
          0.1599999964237213,
          1
        ],
        "metallicFactor": 0,
        "roughnessFactor": 0.699999988079071
      }
    },
    {
      "doubleSided": true,
      "name": "GGP_Showcase_mat_crate_band",
      "pbrMetallicRoughness": {
        "baseColorFactor": [
          0.18000000715255737,
          0.11999999731779099,
          0.07999999821186066,
          1
        ],
        "metallicFactor": 0,
        "roughnessFactor": 0.75
      }
    }
  ],
  "meshes": [
    {
      "name": "GGP_Showcase_CrateBodyMesh",
      "primitives": [
        {
          "attributes": {
            "POSITION": 0,
            "NORMAL": 1,
            "TEXCOORD_0": 2
          },
          "indices": 3,
          "material": 0
        }
      ]
    },
    {
      "name": "GGP_Showcase_CrateBandFrontMesh",
      "primitives": [
        {
          "attributes": {
            "POSITION": 4,
            "NORMAL": 5,
            "TEXCOORD_0": 6
          },
          "indices": 3,
          "material": 1
        }
      ]
    },
    {
      "name": "GGP_Showcase_CrateBandBackMesh",
      "primitives": [
        {
          "attributes": {
            "POSITION": 7,
            "NORMAL": 8,
            "TEXCOORD_0": 9
          },
          "indices": 3,
          "material": 1
        }
      ]
    },
    {
      "name": "GGP_Showcase_CrateBandLeftMesh",
      "primitives": [
        {
          "attributes": {
            "POSITION": 10,
            "NORMAL": 11,
            "TEXCOORD_0": 12
          },
          "indices": 3,
          "material": 1
        }
      ]
    },
    {
      "name": "GGP_Showcase_CrateBandRightMesh",
      "primitives": [
        {
          "attributes": {
            "POSITION": 13,
            "NORMAL": 14,
            "TEXCOORD_0": 15
          },
          "indices": 3,
          "material": 1
        }
      ]
    },
    {
      "name": "GGP_Showcase_CrateTopBandMesh",
      "primitives": [
        {
          "attributes": {
            "POSITION": 16,
            "NORMAL": 17,
            "TEXCOORD_0": 18
          },
          "indices": 3,
          "material": 1
        }
      ]
    }
  ],
  "accessors": [
    {
      "bufferView": 0,
      "componentType": 5126,
      "count": 24,
      "max": [
        0.574999988079071,
        0.574999988079071,
        0.574999988079071
      ],
      "min": [
        -0.574999988079071,
        -0.574999988079071,
        -0.574999988079071
      ],
      "type": "VEC3"
    },
    {
      "bufferView": 1,
      "componentType": 5126,
      "count": 24,
      "type": "VEC3"
    },
    {
      "bufferView": 2,
      "componentType": 5126,
      "count": 24,
      "type": "VEC2"
    },
    {
      "bufferView": 3,
      "componentType": 5123,
      "count": 36,
      "type": "SCALAR"
    },
    {
      "bufferView": 4,
      "componentType": 5126,
      "count": 24,
      "max": [
        0.6600000262260437,
        0.07999999821186066,
        0.03999999910593033
      ],
      "min": [
        -0.6600000262260437,
        -0.07999999821186066,
        -0.03999999910593033
      ],
      "type": "VEC3"
    },
    {
      "bufferView": 5,
      "componentType": 5126,
      "count": 24,
      "type": "VEC3"
    },
    {
      "bufferView": 6,
      "componentType": 5126,
      "count": 24,
      "type": "VEC2"
    },
    {
      "bufferView": 7,
      "componentType": 5126,
      "count": 24,
      "max": [
        0.6600000262260437,
        0.07999999821186066,
        0.03999999910593033
      ],
      "min": [
        -0.6600000262260437,
        -0.07999999821186066,
        -0.03999999910593033
      ],
      "type": "VEC3"
    },
    {
      "bufferView": 8,
      "componentType": 5126,
      "count": 24,
      "type": "VEC3"
    },
    {
      "bufferView": 9,
      "componentType": 5126,
      "count": 24,
      "type": "VEC2"
    },
    {
      "bufferView": 10,
      "componentType": 5126,
      "count": 24,
      "max": [
        0.03999999910593033,
        0.07999999821186066,
        0.6600000262260437
      ],
      "min": [
        -0.03999999910593033,
        -0.07999999821186066,
        -0.6600000262260437
      ],
      "type": "VEC3"
    },
    {
      "bufferView": 11,
      "componentType": 5126,
      "count": 24,
      "type": "VEC3"
    },
    {
      "bufferView": 12,
      "componentType": 5126,
      "count": 24,
      "type": "VEC2"
    },
    {
      "bufferView": 13,
      "componentType": 5126,
      "count": 24,
      "max": [
        0.03999999910593033,
        0.07999999821186066,
        0.6600000262260437
      ],
      "min": [
        -0.03999999910593033,
        -0.07999999821186066,
        -0.6600000262260437
      ],
      "type": "VEC3"
    },
    {
      "bufferView": 14,
      "componentType": 5126,
      "count": 24,
      "type": "VEC3"
    },
    {
      "bufferView": 15,
      "componentType": 5126,
      "count": 24,
      "type": "VEC2"
    },
    {
      "bufferView": 16,
      "componentType": 5126,
      "count": 24,
      "max": [
        0.625,
        0.05999999865889549,
        0.05999999865889549
      ],
      "min": [
        -0.625,
        -0.05999999865889549,
        -0.05999999865889549
      ],
      "type": "VEC3"
    },
    {
      "bufferView": 17,
      "componentType": 5126,
      "count": 24,
      "type": "VEC3"
    },
    {
      "bufferView": 18,
      "componentType": 5126,
      "count": 24,
      "type": "VEC2"
    }
  ],
  "bufferViews": [
    {
      "buffer": 0,
      "byteLength": 288,
      "byteOffset": 0,
      "target": 34962
    },
    {
      "buffer": 0,
      "byteLength": 288,
      "byteOffset": 288,
      "target": 34962
    },
    {
      "buffer": 0,
      "byteLength": 192,
      "byteOffset": 576,
      "target": 34962
    },
    {
      "buffer": 0,
      "byteLength": 72,
      "byteOffset": 768,
      "target": 34963
    },
    {
      "buffer": 0,
      "byteLength": 288,
      "byteOffset": 840,
      "target": 34962
    },
    {
      "buffer": 0,
      "byteLength": 288,
      "byteOffset": 1128,
      "target": 34962
    },
    {
      "buffer": 0,
      "byteLength": 192,
      "byteOffset": 1416,
      "target": 34962
    },
    {
      "buffer": 0,
      "byteLength": 288,
      "byteOffset": 1608,
      "target": 34962
    },
    {
      "buffer": 0,
      "byteLength": 288,
      "byteOffset": 1896,
      "target": 34962
    },
    {
      "buffer": 0,
      "byteLength": 192,
      "byteOffset": 2184,
      "target": 34962
    },
    {
      "buffer": 0,
      "byteLength": 288,
      "byteOffset": 2376,
      "target": 34962
    },
    {
      "buffer": 0,
      "byteLength": 288,
      "byteOffset": 2664,
      "target": 34962
    },
    {
      "buffer": 0,
      "byteLength": 192,
      "byteOffset": 2952,
      "target": 34962
    },
    {
      "buffer": 0,
      "byteLength": 288,
      "byteOffset": 3144,
      "target": 34962
    },
    {
      "buffer": 0,
      "byteLength": 288,
      "byteOffset": 3432,
      "target": 34962
    },
    {
      "buffer": 0,
      "byteLength": 192,
      "byteOffset": 3720,
      "target": 34962
    },
    {
      "buffer": 0,
      "byteLength": 288,
      "byteOffset": 3912,
      "target": 34962
    },
    {
      "buffer": 0,
      "byteLength": 288,
      "byteOffset": 4200,
      "target": 34962
    },
    {
      "buffer": 0,
      "byteLength": 192,
      "byteOffset": 4488,
      "target": 34962
    }
  ],
  "buffers": [
    {
      "byteLength": 4680,
      "uri": "data:application/octet-stream;base64,"
    }
  ]
}
